<svg xmlns="http://www.w3.org/2000/svg" viewBox="0 0 512 512" role="img" aria-labelledby="title desc">
  <title id="title">Webkiln</title>
  <desc id="desc">An ember-orange flame shaped from an interwoven W and K, with a charcoal-tipped arm.</desc>
  <defs>
    <filter id="drop-shadow" x="-25%" y="-20%" width="150%" height="160%" color-interpolation-filters="sRGB">
      <feDropShadow dx="0" dy="10" stdDeviation="8" flood-color="#1B1A19" flood-opacity="0.38"/>
    </filter>
  </defs>
  <path
    fill="#F45B0A"
    filter="url(#drop-shadow)"
    d="M260 50 C265 77 264 99 255 121 C245 146 218 177 197 207 C179 233 178 258 189 284 C197 302 218 325 237 344 L200 391 L160 343 C152 355 149 370 153 383 C155 392 160 399 166 406 L204 450 L263 375 C280 397 297 417 311 448 C322 427 329 408 324 388 C321 373 309 356 298 341 C296 333 298 321 305 309 L359 243 L320 243 C301 266 285 290 273 319 L251 297 C237 283 231 268 232 248 C233 231 244 214 257 198 C270 182 282 166 289 148 C302 116 290 81 275 66 C269 60 264 55 260 50Z"/>
  <path fill="#303438" d="M320 243H359L343 260H307Z"/>
</svg>
